<?xml version="1.0" standalone="no"?>
<!DOCTYPE svg PUBLIC "-//W3C//DTD SVG 20010904//EN"
 "http://www.w3.org/TR/2001/REC-SVG-20010904/DTD/svg10.dtd">
<svg version="1.0" xmlns="http://www.w3.org/2000/svg"
 width="320.000000pt" height="320.000000pt" viewBox="0 0 320.000000 320.000000"
 preserveAspectRatio="xMidYMid meet">
<metadata>
Created by potrace 1.14, written by Peter Selinger 2001-2017
</metadata>
<g transform="translate(0.000000,320.000000) scale(0.100000,-0.100000)"
fill="#000000" stroke="none">
<path d="M1595 2611 c-72 -21 -97 -33 -152 -79 -58 -47 -109 -120 -127 -183
-20 -67 -20 -184 -1 -240 15 -42 10 -58 -19 -59 -12 0 1 -114 14 -118 5 -2 8
-7 5 -12 -6 -9 36 -182 60 -250 14 -39 13 -44 -5 -67 -11 -14 -20 -33 -20 -42
0 -31 -40 -80 -81 -101 -24 -11 -48 -20 -53 -20 -18 0 -136 -52 -136 -60 0
-12 42 -23 76 -21 18 1 35 -2 39 -8 3 -6 19 -11 36 -11 22 0 29 5 29 20 0 11
4 20 10 20 9 0 8 -11 -8 -107 -8 -44 -6 -53 7 -56 13 -4 13 -5 -1 -6 -16 -1
-18 -12 -18 -87 l0 -87 45 6 c25 4 56 2 69 -3 22 -8 25 -6 29 18 4 25 4 24 6
-5 1 -34 1 -35 84 -48 36 -6 37 -5 38 27 1 18 5 44 10 58 6 19 8 11 6 -30 -2
-54 -1 -55 27 -58 16 -2 44 -1 63 3 33 6 33 6 33 65 0 32 -3 66 -6 75 -9 23
-84 58 -121 57 -31 -1 -46 12 -23 20 6 2 -4 21 -23 43 -18 22 -36 48 -40 57
-9 26 -58 35 -71 13 -26 -43 -49 -65 -67 -65 -11 0 -17 5 -14 10 3 6 15 10 25
10 13 0 27 14 40 40 20 38 42 51 55 30 3 -5 12 -7 20 -4 8 4 13 10 10 14 -3 5
4 6 16 3 19 -5 20 -4 10 15 -15 28 -14 32 8 32 12 0 23 -11 30 -30 6 -20 7
-30 0 -30 -6 0 -7 -5 -3 -12 5 -7 2 -9 -8 -5 -12 4 -14 1 -10 -15 4 -16 2 -19
-9 -13 -8 5 -5 -2 6 -15 11 -12 34 -29 50 -37 17 -8 41 -21 55 -28 29 -17 96
-20 105 -5 11 19 23 10 18 -12 -6 -23 -6 -23 23 2 73 64 73 64 67 41 -3 -11 2
-27 10 -35 15 -16 13 -51 -4 -62 -5 -3 -6 3 -3 13 4 12 0 10 -15 -7 -11 -14
-24 -34 -27 -45 -4 -11 -21 -36 -38 -55 -17 -19 -38 -45 -47 -57 -12 -18 -29
-24 -77 -29 -59 -7 -62 -8 -62 -34 0 -15 -3 -55 -7 -90 -4 -39 -3 -61 3 -57 6
3 16 2 24 -4 12 -7 10 -9 -7 -9 -22 0 -23 -3 -23 -90 0 -73 3 -90 15 -90 8 0
15 -4 15 -10 0 -5 -4 -10 -10 -10 -14 0 -13 -173 1 -187 8 -8 8 -13 0 -17 -6
-4 -11 -20 -11 -35 0 -25 5 -29 33 -34 48 -7 57 0 56 47 -1 56 -13 95 -23 78
-4 -7 -3 -18 3 -25 8 -10 2 -12 -24 -9 -36 4 -49 22 -16 22 10 0 21 7 25 15 3
8 12 15 21 15 12 0 15 15 15 80 l0 80 -37 1 -38 2 40 6 40 6 0 90 0 90 -35 6
-35 6 33 2 c25 1 32 5 32 21 0 11 5 20 10 20 6 0 10 -9 10 -20 0 -23 0 -23 34
-10 24 9 26 15 27 67 l1 58 9 -54 c5 -30 11 -56 12 -58 2 -1 27 0 55 4 l52 6
1 56 c1 31 3 45 6 31 15 -98 9 -90 62 -90 54 0 78 14 84 50 4 24 4 24 6 -2 1
-28 2 -28 72 -28 l71 0 -5 58 -6 57 12 -55 12 -55 50 -5 c53 -5 41 -20 -16
-20 l-29 0 6 -72 c8 -101 6 -98 66 -98 38 0 49 -3 38 -10 -8 -5 -32 -10 -52
-10 -44 0 -47 -8 -13 -38 31 -27 33 -68 5 -98 l-21 -21 31 -7 c26 -5 41 1 88
34 81 56 92 66 92 79 0 6 8 14 18 18 27 9 62 45 62 63 0 21 19 40 41 40 9 0
28 17 42 38 l26 37 -17 57 c-15 48 -20 55 -35 47 -19 -11 -23 1 -5 19 8 8 5
21 -17 52 -28 41 -45 51 -45 27 0 -8 -20 -36 -45 -62 -36 -40 -42 -51 -30 -58
25 -14 17 -26 -10 -14 -14 7 -25 15 -25 18 0 4 20 30 45 57 l46 51 -28 15
c-32 17 -26 21 12 6 20 -8 27 -7 32 6 5 12 11 10 34 -12 33 -31 36 -23 13 31
-10 26 -20 35 -30 31 -11 -4 -14 -1 -10 12 4 13 -3 25 -24 40 -16 12 -33 22
-38 22 -5 0 -15 7 -22 15 -7 8 -24 15 -39 15 -18 0 -22 3 -13 9 10 6 -4 19
-50 48 -49 31 -71 40 -98 37 -19 -2 -27 -1 -17 2 9 3 17 9 17 12 0 4 -27 28
-59 55 -38 30 -69 47 -87 48 -24 0 -26 2 -9 8 17 7 15 11 -24 39 -25 18 -50
41 -58 52 -9 12 -20 17 -31 13 -14 -6 -15 -4 -5 8 10 12 9 20 -3 38 -15 21
-14 26 15 84 30 60 45 113 58 205 4 31 9 40 15 30 6 -9 7 -6 3 10 -8 28 2 62
18 59 7 -1 13 15 15 41 3 37 0 44 -18 49 -16 4 -20 11 -16 27 4 11 12 51 18
89 24 132 -32 292 -130 377 -98 84 -194 110 -297 81z m135 -145 c66 -18 167
-71 179 -94 4 -9 9 -37 10 -61 0 -24 5 -49 11 -56 5 -6 8 -14 5 -17 -3 -2 0
-20 6 -39 18 -55 27 -119 17 -125 -4 -3 -8 1 -8 10 0 10 -7 12 -25 8 -29 -8
-29 -28 0 -24 l20 4 -20 -16 c-18 -14 -18 -15 -2 -16 9 0 16 -3 16 -7 -3 -21
2 -33 16 -33 16 0 22 -44 17 -125 -3 -40 -34 -102 -70 -141 -11 -12 -22 -37
-24 -55 -2 -26 -8 -34 -22 -34 -11 0 -20 -8 -22 -18 -1 -10 -8 -25 -16 -34 -7
-9 -13 -21 -14 -27 0 -6 -2 -18 -2 -27 -2 -20 -29 -50 -64 -73 -21 -14 -37
-16 -75 -10 -54 7 -73 19 -73 43 0 12 9 16 36 15 70 -2 115 22 145 78 8 14 2
12 -27 -7 -60 -41 -148 -31 -196 21 -16 18 -14 19 55 21 87 2 171 15 213 34
26 12 29 16 18 27 -17 16 -41 15 -51 -2 -12 -21 -149 -44 -181 -31 -9 5 -27 7
-39 6 -13 -1 -26 6 -32 18 -7 12 -17 18 -26 15 -8 -3 -24 4 -36 15 -13 12 -19
21 -14 21 5 0 -1 7 -13 16 -12 8 -22 23 -22 33 0 10 -6 24 -14 30 -26 21 -55
97 -50 127 7 42 19 49 41 24 23 -24 79 -36 120 -25 l28 8 -35 9 c-40 11 -60
25 -60 42 0 6 5 3 11 -6 5 -10 17 -18 26 -18 9 0 22 8 29 18 12 16 14 16 34
-5 25 -28 25 -28 50 -3 24 24 25 48 5 77 -21 30 -69 43 -147 40 -73 -4 -89 7
-60 39 21 23 55 74 63 94 3 8 0 37 -7 65 -7 27 -10 52 -5 55 6 4 18 27 26 50
9 26 19 39 26 35 4 -3 25 1 45 10 20 8 52 15 70 15 19 0 34 5 34 10 0 13 16
13 80 -4z m-241 -407 c46 -16 38 -29 -19 -29 -27 0 -50 2 -50 4 0 2 3 11 6 20
7 19 20 20 63 5z m-76 -547 c-4 -27 -9 -32 -25 -26 -10 3 -27 0 -36 -8 -15
-12 -16 -11 -3 5 7 9 19 17 26 17 6 0 17 12 24 26 15 34 20 28 14 -14z m-141
-89 c21 -19 23 -29 6 -31 -7 0 -24 -3 -38 -7 -24 -5 -24 -5 -2 4 25 12 28 21
10 39 -18 18 3 14 24 -5z m708 -42 c13 -25 13 -42 -1 -18 -14 24 -42 21 -69
-8 -13 -14 -26 -23 -29 -20 -7 8 61 65 76 65 7 0 17 -9 23 -19z m85 -11 c18
-8 18 -9 -5 -9 -14 0 -34 4 -45 9 -18 8 -18 9 5 9 14 0 34 -4 45 -9z m-50 -40
c3 -5 1 -10 -4 -10 -6 0 -11 5 -11 10 0 6 2 10 4 10 3 0 8 -4 11 -10z m135
-100 c16 0 32 -5 36 -12 4 -7 3 -8 -5 -4 -7 5 -23 5 -37 2 -20 -5 -24 -12 -24
-44 0 -20 3 -54 6 -75 l7 -37 58 2 c58 3 59 3 59 33 1 25 2 27 11 12 5 -9 7
-22 4 -27 -3 -5 6 -26 21 -46 l28 -36 17 23 17 23 -5 -26 c-4 -22 -1 -27 18
-31 22 -4 22 -4 -3 -6 -15 0 -32 -9 -37 -18 -9 -16 -10 -15 -11 5 0 13 -14 37
-30 52 -30 28 -32 28 -145 26 -118 -1 -152 8 -67 20 l47 6 -5 61 c-3 34 -6 67
-7 72 -1 6 -19 12 -40 15 -26 3 -34 8 -25 13 7 5 24 6 38 3 23 -6 24 -4 25 41
l1 48 10 -47 c9 -44 13 -48 38 -48z m-133 -49 c16 -25 16 -26 -3 -11 -10 8
-26 24 -35 35 -9 10 -29 20 -45 21 -53 3 -59 7 -24 13 39 7 78 -14 107 -58z
m-612 11 c2 -2 20 4 40 13 19 10 38 15 41 12 4 -3 -18 -17 -47 -31 -57 -28
-80 -33 -62 -15 7 7 10 26 7 43 -4 29 -4 30 6 6 6 -13 13 -26 15 -28z m856
-13 c10 -10 32 -19 48 -19 17 0 51 -11 77 -25 27 -15 39 -25 28 -25 -10 0 -32
9 -49 20 -16 11 -44 20 -61 20 -16 0 -39 8 -50 18 -10 10 -28 24 -39 31 -19
11 -19 12 3 5 13 -3 33 -15 43 -25z m-937 -19 c-7 -7 -19 -7 -35 -1 -23 9 -22
10 11 10 23 1 31 -2 24 -9z m540 -70 c-6 -6 -21 -6 -39 -1 -30 9 -30 9 10 10
25 1 36 -2 29 -9z m127 -72 c-4 -28 -6 -29 -9 -10 -3 23 -7 23 -78 20 -41 -2
-74 0 -74 4 0 4 35 9 78 11 42 1 80 4 83 5 3 1 3 -13 0 -30z m317 -130 c-3
-48 -1 -53 20 -56 12 -2 22 -8 22 -13 0 -6 -12 -8 -28 -4 -26 5 -30 2 -40 -27
l-12 -33 4 37 c3 23 0 38 -7 41 -8 2 -7 9 4 20 9 9 20 32 23 52 10 52 17 43
14 -17z m198 -27 c-10 -11 -14 -25 -10 -37 6 -18 5 -17 -9 1 -14 18 -14 22 0
38 9 9 21 17 26 17 6 0 3 -8 -7 -19z m-84 -43 c2 -25 7 -32 21 -30 9 2 17 -2
17 -8 0 -5 -7 -10 -15 -10 -10 0 -16 -11 -16 -32 -2 -31 -2 -31 -6 -5 -4 24
-8 27 -46 27 -31 0 -38 3 -27 10 8 5 26 10 39 10 21 0 23 3 18 35 -3 19 -2 35
3 35 5 0 10 -15 12 -32z m-87 -233 c-36 -17 -55 -19 -55 -6 0 8 27 15 75 19 6
0 -3 -6 -20 -13z"/>
<path d="M1786 2081 c-4 -7 -20 -11 -35 -9 -29 3 -61 -21 -61 -44 1 -36 50
-64 82 -47 14 8 23 8 31 0 14 -14 47 -14 47 -1 0 6 7 10 16 10 13 0 14 -3 5
-13 -6 -8 -8 -17 -4 -20 3 -4 -6 -7 -20 -7 -15 0 -27 -4 -27 -9 0 -19 102 18
117 42 12 19 -30 39 -69 33 -45 -7 -83 11 -66 31 6 7 16 13 22 13 7 0 21 6 32
14 18 14 18 15 -6 12 -14 -1 -31 -5 -37 -9 -6 -4 -13 -2 -15 5 -3 9 -6 9 -12
-1z"/>
<path d="M1787 1939 c7 -7 15 -10 18 -7 3 3 -2 9 -12 12 -14 6 -15 5 -6 -5z"/>
<path d="M1556 1843 c-6 -14 -5 -15 5 -6 7 7 10 15 7 18 -3 3 -9 -2 -12 -12z"/>
<path d="M1543 1795 c1 -22 10 -33 30 -43 15 -7 32 -10 39 -6 7 4 38 8 70 9
61 0 91 16 71 36 -9 9 -23 9 -58 -1 -35 -10 -52 -10 -71 -1 -14 6 -36 11 -49
11 -13 0 -26 6 -29 13 -3 6 -4 -1 -3 -18z"/>
<path d="M1019 1345 c-20 -13 -39 -22 -42 -19 -3 3 -20 -2 -39 -12 -30 -15
-31 -18 -13 -25 17 -6 15 -8 -11 -8 -31 -1 -84 -47 -97 -84 -4 -11 -12 -15
-18 -11 -8 4 -9 3 -5 -4 4 -7 -3 -14 -19 -18 -29 -7 -33 -21 -7 -26 10 -2 29
10 49 32 31 35 31 35 60 18 25 -15 33 -15 49 -4 26 19 81 30 130 28 40 -3 41
-2 48 35 12 74 9 84 -21 78 l-28 -6 24 14 c24 14 24 15 3 26 -26 14 -21 15
-63 -14z m-60 -119 c-9 -8 -10 -7 -5 7 3 10 7 26 7 35 1 9 4 6 6 -7 3 -13 -1
-28 -8 -35z"/>
<path d="M1149 1343 c-10 -2 -19 -19 -23 -41 -3 -20 -8 -52 -12 -69 -6 -30 -4
-33 17 -33 13 0 44 6 69 14 43 13 45 15 50 57 5 42 3 45 -25 55 -55 20 -60 22
-76 17z"/>
<path d="M980 1191 c-24 -7 -25 -10 -21 -77 2 -38 5 -73 8 -77 2 -4 19 -5 36
-2 18 4 45 2 60 -4 27 -10 27 -10 28 32 l1 42 10 -37 10 -38 58 0 c33 0 61 4
64 9 3 5 3 44 -1 86 l-6 77 -31 -8 c-17 -4 -44 -8 -59 -8 -21 -1 -29 -7 -33
-26 -10 -44 -12 -46 -13 -9 -1 33 -4 37 -32 43 -36 7 -45 7 -79 -3z"/>
<path d="M832 1174 c-12 -8 -22 -19 -22 -24 0 -4 20 -32 44 -60 50 -59 64 -90
35 -83 -9 3 -16 10 -13 17 2 6 -11 30 -31 53 -19 23 -35 47 -35 53 0 10 -3 10
-14 1 -8 -7 -25 -9 -38 -6 -21 5 -27 -1 -58 -65 l-35 -71 25 -19 c23 -17 100
-43 107 -36 2 2 6 33 10 70 3 36 10 66 14 66 5 0 6 -21 2 -47 -14 -95 -13 -96
39 -108 60 -13 77 -30 21 -21 -23 3 -48 8 -56 12 -16 6 -27 -40 -27 -122 l0
-51 43 -11 c23 -7 53 -14 67 -16 14 -3 0 -3 -30 -2 -30 2 -63 7 -72 11 -16 6
-18 1 -18 -47 l0 -55 56 -41 c31 -23 67 -42 79 -42 14 0 25 -7 28 -20 5 -19
92 -69 102 -58 3 3 8 42 12 87 l6 81 -44 0 c-24 1 -57 7 -74 14 -27 13 -24 13
46 9 l75 -6 14 87 c7 47 11 89 7 92 -3 3 -38 7 -78 8 -70 1 -73 0 -80 -24 l-7
-25 -1 25 c-1 14 6 57 14 95 22 107 20 125 -15 138 -16 6 -30 15 -30 19 0 11
8 10 32 -3 20 -11 21 -10 15 36 -4 26 -7 56 -7 67 0 14 -5 17 -23 13 -15 -4
-28 -1 -36 9 -17 20 -21 20 -49 0z m-89 -99 c-3 -9 -8 -14 -10 -11 -3 3 -2 9
2 15 9 16 15 13 8 -4z"/>
<path d="M1283 1023 c-22 -4 -23 -9 -23 -88 0 -46 3 -86 8 -88 4 -3 31 -2 60
0 l52 6 0 75 c0 41 3 73 6 69 4 -3 6 -39 6 -79 l-1 -73 37 -13 c20 -8 49 -16
65 -19 l27 -5 2 76 c0 42 1 82 2 89 1 7 -19 14 -54 18 -30 4 -72 14 -92 23
-37 16 -52 17 -95 9z"/>
<path d="M983 1014 c-8 -3 -13 -24 -13 -47 0 -23 -4 -59 -9 -79 -10 -44 -4
-48 81 -48 l61 0 -7 82 c-4 45 -9 84 -11 86 -7 7 -89 12 -102 6z"/>
<path d="M1155 1011 c-39 -5 -50 -10 -49 -23 0 -10 1 -47 2 -83 l2 -65 70 0
71 0 -3 88 c-3 98 1 95 -93 83z"/>
<path d="M625 901 l-26 -69 22 -26 c28 -32 33 -32 48 -3 11 21 11 21 6 -5 -5
-25 -2 -28 47 -43 28 -8 55 -12 59 -8 4 5 9 43 11 87 l3 79 -43 12 c-23 7 -54
20 -67 29 -13 9 -26 16 -29 16 -2 0 -16 -31 -31 -69z m62 -33 c-3 -8 -6 -5 -6
6 -1 11 2 17 5 13 3 -3 4 -12 1 -19z"/>
<path d="M2063 862 l-63 -3 0 -43 c0 -24 3 -63 6 -88 l6 -45 72 5 c39 2 72 5
73 6 7 6 -12 148 -21 159 -7 8 -33 11 -73 9z"/>
<path d="M1909 843 l-46 -4 -7 -46 c-3 -25 -6 -64 -6 -86 l0 -40 46 7 c26 3
57 6 70 6 23 0 24 3 24 63 0 73 -8 108 -24 105 -6 -1 -32 -3 -57 -5z"/>
<path d="M1758 834 c-6 -5 -48 -12 -85 -13 -22 -1 -23 -5 -23 -91 0 -93 3
-100 44 -84 12 4 16 21 17 58 l2 51 6 -42 c4 -24 10 -45 14 -49 3 -3 29 -3 56
1 l51 7 0 61 c0 34 3 72 6 85 6 20 3 22 -38 22 -25 0 -47 -3 -50 -6z"/>
<path d="M1266 818 c-3 -7 -7 -50 -10 -95 l-6 -83 55 0 c62 0 60 -4 69 112 6
75 3 78 -65 78 -23 0 -41 -5 -43 -12z"/>
<path d="M1116 804 c-4 -10 -9 -50 -13 -90 l-6 -74 70 0 70 0 7 53 c3 28 6 69
6 90 l0 37 -64 0 c-50 0 -65 -4 -70 -16z"/>
<path d="M1397 813 c-2 -4 -6 -46 -8 -92 -4 -78 -3 -84 16 -86 11 -2 42 -6 69
-9 41 -5 47 -4 42 10 -3 9 -6 46 -6 82 l0 67 -37 13 c-21 7 -45 15 -54 18 -9
3 -19 2 -22 -3z"/>
<path d="M670 743 c0 -10 93 -103 103 -103 4 0 7 18 7 40 0 33 -4 42 -22 49
-41 15 -88 23 -88 14z"/>
<path d="M2490 709 c0 -5 5 -7 10 -4 6 3 10 8 10 11 0 2 -4 4 -10 4 -5 0 -10
-5 -10 -11z"/>
<path d="M2015 660 c-4 -6 -1 -17 5 -25 8 -10 10 -35 5 -77 l-7 -64 71 -2 c39
-1 71 1 71 6 0 4 -19 16 -42 27 -29 13 -50 33 -63 57 -18 35 -19 39 -4 54 24
24 54 4 84 -56 14 -28 28 -50 30 -50 3 0 5 23 5 50 0 45 -2 50 -22 50 -21 1
-22 2 -5 14 9 7 17 16 17 20 0 10 -138 7 -145 -4z"/>
<path d="M1878 653 c-27 -4 -28 -6 -28 -66 0 -94 6 -106 46 -104 40 2 43 8 12
22 -13 6 -29 23 -37 39 -20 42 2 80 47 84 20 2 32 -1 32 -8 0 -7 -7 -9 -16 -6
-46 18 -72 -46 -33 -85 28 -28 41 -20 55 35 7 26 19 55 28 65 9 10 16 21 16
24 0 7 -75 7 -122 0z"/>
<path d="M1752 643 c-23 -5 -24 -6 -17 -91 4 -48 8 -88 9 -89 0 0 22 1 49 4
l47 6 0 51 c0 28 -3 68 -6 89 -7 39 -16 42 -82 30z"/>
<path d="M1673 623 c-21 -4 -23 -10 -24 -71 -1 -63 1 -115 5 -119 0 -1 18 4
39 10 24 8 35 17 32 25 -3 8 -5 47 -5 88 0 77 1 76 -47 67z"/>
<path d="M2060 610 c0 -22 50 -80 69 -80 16 0 14 10 -12 55 -26 45 -57 59 -57
25z"/>
<path d="M2181 613 c1 -10 4 -31 8 -48 l7 -30 13 23 c10 20 10 27 -4 48 -18
28 -25 30 -24 7z"/>
<path d="M1085 563 c-3 -32 -9 -70 -11 -85 -6 -30 -1 -32 123 -42 34 -3 80 -8
102 -12 l39 -6 6 58 c4 33 9 78 12 102 l5 42 -135 0 -135 0 -6 -57z"/>
<path d="M1984 605 c-17 -29 -27 -85 -16 -85 20 0 33 30 30 67 -3 34 -4 36
-14 18z"/>
<path d="M1366 520 c-4 -51 -6 -94 -4 -95 2 -2 41 -6 87 -10 l84 -7 -6 92 c-3
51 -9 95 -12 98 -3 4 -37 8 -74 10 l-68 4 -7 -92z"/>
<path d="M1978 512 c-35 -21 -35 -28 -1 -26 19 0 27 7 30 22 1 12 2 22 0 21
-1 0 -14 -8 -29 -17z"/>
<path d="M2037 455 c-16 -12 -16 -13 7 -28 22 -15 25 -15 30 0 4 10 14 13 28
10 11 -3 35 2 52 11 30 16 30 17 8 20 -13 2 -37 -2 -53 -8 -20 -9 -33 -9 -42
-2 -8 7 -17 6 -30 -3z"/>
<path d="M1918 443 c-14 -14 -20 -14 -33 -3 -21 17 -22 13 -17 -42 4 -52 20
-61 58 -33 18 13 18 14 -5 8 -25 -6 -43 11 -34 34 4 10 17 12 47 8 29 -5 47
-2 61 9 17 14 18 17 5 26 -23 15 -64 12 -82 -7z"/>
<path d="M1750 437 c-14 -8 -30 -12 -36 -10 -6 2 -23 -1 -37 -6 -24 -9 -27
-16 -27 -56 l0 -45 38 0 c34 0 163 18 169 24 1 1 0 26 -4 54 -6 52 -6 52 -42
52 -20 0 -47 -6 -61 -13z"/>
<path d="M1103 424 c4 -4 28 -16 52 -25 44 -16 45 -16 45 2 0 15 -7 19 -34 19
-19 0 -43 3 -53 7 -10 3 -14 2 -10 -3z"/>
<path d="M2025 410 c-3 -5 -1 -10 4 -10 6 0 11 5 11 10 0 6 -2 10 -4 10 -3 0
-8 -4 -11 -10z"/>
<path d="M1210 395 c0 -17 32 -32 91 -41 37 -6 39 -5 39 18 0 21 -6 26 -37 32
-64 10 -93 7 -93 -9z"/>
<path d="M1900 400 c0 -5 7 -10 16 -10 8 0 12 5 9 10 -3 6 -10 10 -16 10 -5 0
-9 -4 -9 -10z"/>
<path d="M1977 399 c-9 -6 -15 -14 -12 -19 8 -13 45 0 45 16 0 16 -8 17 -33 3z"/>
<path d="M1360 372 c0 -33 5 -36 103 -47 l57 -7 0 36 0 36 -49 0 c-27 0 -63 3
-80 6 -29 6 -31 5 -31 -24z"/>
</g>
</svg>
