<?xml version="1.0" encoding="UTF-8"?>
<!DOCTYPE svg PUBLIC "-//W3C//DTD SVG 1.1//EN" "http://www.w3.org/Graphics/SVG/1.1/DTD/svg11.dtd">
<!-- Creator: CorelDRAW 2019 (64-Bit) -->
<svg xmlns="http://www.w3.org/2000/svg" xml:space="preserve" width="2.53857in" height="2.46083in" version="1.1" style="shape-rendering:geometricPrecision; text-rendering:geometricPrecision; image-rendering:optimizeQuality; fill-rule:evenodd; clip-rule:evenodd"
viewBox="0 0 2538.58 2460.84"
 xmlns:xlink="http://www.w3.org/1999/xlink">
 <defs>
  <style type="text/css">
   <![CDATA[
    .fil0 {fill:black}
    .fil1 {fill:black;fill-rule:nonzero}
   ]]>
  </style>
 </defs>
 <g id="Layer_x0020_1">
  <metadata id="CorelCorpID_0Corel-Layer"/>
  <g id="_1118404672">
   <path class="fil0" d="M1988.8 1119.57c1.58,32.07 -6.51,63.53 -16.05,85.83 -4.65,10.85 -12.26,24.15 -18.79,33.48 -4.23,6.05 -20.36,23.01 -25.81,26.78 -0.72,-14.72 -10.94,-32.75 -19.95,-39.35 -22.2,-16.28 -67.19,-19.59 -87.49,3.2 -21.56,24.18 -15.74,62.41 3.49,85.15 30.33,35.89 87.22,16.46 111.23,-2.25 17.46,-13.61 31.87,-28.87 44.63,-46.97 11.46,-16.27 24.41,-40.82 30.51,-60.44 20.65,-66.38 17.83,-112.92 -12.19,-179.59 -54.02,-119.83 -234.14,-166.55 -345.29,-98.3 -23.72,14.57 -44.22,28.44 -64.93,45.87 -18.61,15.68 -42.76,36.37 -56.57,55.46l-39.63 48.42c-6.65,9.1 -12.05,16.65 -18.37,25.6 -24.64,34.93 -47.54,72.41 -66.08,111.04 -5.94,-3.84 -7.74,-4.78 -13.11,-9.99l-25.97 -22.03c-15.16,-11.29 -48.02,-43.05 -65.6,-57.18 -8.18,-6.56 -16.91,-15.9 -24.68,-23.41 -5.15,-4.95 -7.58,-6.12 -12.69,-10.43 -17.24,-14.57 -35.32,-35.5 -49.33,-48.7 -4.64,-4.36 -8.83,-7.66 -12.37,-12.58 6.76,-10.87 70.71,-78.12 86.53,-99.85 6.87,-9.43 13.26,-16.52 20.09,-25.61l41.61 -53.13c30.53,-43.81 67.48,-95.19 89.87,-143.09 4.9,-10.46 10.46,-19.32 15.34,-30.13 25.25,-56.04 47.11,-112.21 59.52,-173.67 5.37,-26.65 8.13,-51.19 11.09,-80.61 5.73,-56.85 -6.36,-120.73 -22.16,-174 -19.56,-66.04 -65.97,-132.05 -121.54,-173.87 -39.28,-29.56 -82.98,-53.91 -131.8,-64.34 -13.93,-2.96 -26.6,-5.39 -40.14,-7.15 -207.03,-27.02 -289.01,97.43 -312.32,291.36 -13.82,114.89 1.27,237.53 32.94,348.06 7.81,27.28 15.12,49.38 24.72,74.56l30.32 70.51c15.41,33.2 33.36,65.08 53.09,95.92 7.14,11.18 13.43,19.11 19.88,30.3 -147.5,237.72 -528.91,466.56 -702.98,762 -3.48,5.9 -6.89,11.99 -10.24,18.22l78.15 0c57.83,0 118.07,-5.93 173.21,-24.17l35.17 -11.63c129.06,-190.27 311.62,-369.95 381.85,-444.01 8.11,-8.55 15.22,-14.09 23.24,-22.6 4.53,-4.81 5.98,-6.43 11.34,-10.73l71.67 -69.26c4.23,-4.5 7.31,-7.69 11.56,-12.19 3.98,-4.17 6.79,-7.11 10.74,-11.32l36.09 -35.18c8.69,6.13 16.23,18.06 24.28,25.65l170.88 153.06c5.48,4.29 10.24,7.14 14.14,12.57l-121.43 253.9c-4.31,9.66 -8.95,17.88 -13.7,28.39 -17.35,38.5 -37.53,75.1 -54.7,113.59l-97.05 195.91c-21.81,39.84 -54.45,94.69 -81.07,132.89 -46.57,66.82 -77.1,98.35 -138.26,151.98 -24.37,18.84 -47.57,38.09 -75.3,52.54 -60.61,31.52 -132.14,56.14 -199.65,16.7 -105.5,-61.64 -128.69,-155.76 -104.84,-262.22l-226.43 0c-7.93,93.98 9.36,189.37 68.98,263.82 24.16,30.17 51.4,54.03 84.77,73.58 60.27,35.32 137.02,48.48 216.04,41.27 27.99,-2.56 56.73,-12.87 80.16,-21.38 23.73,-8.59 48.24,-22.32 68.43,-34.2 27.59,-16.25 61.83,-41.78 85.17,-64.67l50.58 -49.57c8.67,-9.12 16.12,-16.95 24.82,-26.06 34.22,-40.83 65.13,-76.35 95.97,-120.62 32.73,-46.98 59.48,-98.39 88.29,-147.97 3.27,-5.89 5.57,-10.17 8.99,-16.3 3.42,-6.12 5.24,-10.88 8.52,-16.74 12.16,-21.78 20.54,-44.88 32.57,-66.75l64.47 -135.82c3.07,-6.83 5.41,-9.93 8.49,-16.76l15.64 -34.81c3.1,-6.93 5.63,-10.73 8.48,-16.79 5.23,-11.07 9.33,-22.54 15.4,-33.39l24.48 -51.26c3.15,-6.43 5.36,-9.8 8.46,-16.8 5.44,-12.33 11.55,-21.86 16.04,-34.44 9.66,-27.19 51.19,-108.64 66.7,-133.66 9.73,5.02 22.02,18.04 31.33,25.57 3.33,2.69 6.67,5.37 10.02,8.04l0 -44.94 -8.2 -7.06c-6.13,-4.67 -11.35,-9.06 -17.29,-12.91 13.65,-28.41 30.85,-55.6 47.43,-82.42 16.52,-26.77 33.63,-53.96 53.84,-77.97 3.85,-4.58 6.12,-7.61 9.86,-12.15 43.89,-53.39 97.78,-97.41 161.09,-126.54 111.81,-51.47 275.23,46.74 281.79,180.84zm-255.16 427.42c28.83,30.67 56.73,63.51 83.92,100.28 46.17,62.43 80.77,124.11 105.32,183.88 23.96,58.34 38.3,112.83 44.65,163.25 13.48,106.91 -8.91,195.78 -51.17,264.61 -42.11,68.6 -104,117.42 -169.72,144.41 -27.47,11.28 -55.57,18.73 -83.09,22.2 -46.26,5.83 -95.51,-8.57 -135.43,-36.38 -27.67,-19.27 -50.67,-44.85 -64.89,-74.43 -14.02,-29.17 -19.53,-62.45 -12.56,-97.6 5.94,-29.95 20.99,-61.39 47.54,-93.06 8.23,25.8 34.2,42.76 64.89,39.81 37.19,-3.56 67.21,-35 67.07,-70.22 -0.14,-35.23 -30.42,-60.89 -67.61,-57.32 -14.33,1.37 -27.6,6.89 -38.49,15.17l-0.02 -0.01 -0.31 0.26c-1.66,1.28 -3.26,2.61 -4.8,4.01 -60.47,51.22 -91.65,104.45 -101.66,154.85 -8.47,42.7 -1.73,83.19 15.35,118.74 16.89,35.15 43.84,65.29 76.06,87.73 46.42,32.33 104.24,49.02 159.09,42.1 30.51,-3.85 61.53,-12.06 91.74,-24.47 71.94,-29.54 139.7,-83 185.81,-158.11 45.96,-74.88 70.37,-171.17 55.82,-286.56 -6.72,-53.33 -21.79,-110.72 -46.91,-171.9 -25.58,-62.29 -61.55,-126.43 -109.45,-191.21 -34.13,-46.15 -71.59,-88.4 -111.19,-128.32l0 48.26zm-800.18 -1234.83c2.39,-28.11 6.81,-64.28 13.73,-89.69 13.13,-48.16 22.77,-81.23 54.22,-120.72 40.99,-51.44 104.61,-73.32 165.42,-33.91 32.48,21.04 58.84,48.98 77.44,83.11 23.65,43.41 36.67,65.17 45.39,116.83 4.24,25.15 7.91,48.05 9.11,72.74 2.32,47.26 -3.06,96.46 -9.76,141.58 -3.33,22.48 -8.31,40.95 -14.04,61.23 -12.77,45.3 -21.84,65.95 -41.5,109.63 -4.59,10.2 -7.96,16.16 -13.08,25.66l-41.15 73.48c-4.41,8.19 -9.22,15.17 -14.48,22.68l-80.96 111.78c-121.87,-169.63 -167.8,-368.08 -150.34,-574.39z"/>
   <path class="fil1" d="M214.59 848.44l0 875.54 211.16 0c155.65,0 266.09,-42.35 331.33,-127.04 24.44,-32.59 43.09,-73.06 55.93,-121.38l33.97 -38.22c35.86,-40.35 72.65,-79.84 109.96,-118.86 26.69,-27.92 53.79,-55.46 80.36,-83.48 3.19,-3.36 6.54,-6.54 9.92,-9.7 1.13,19.82 1.71,40.12 1.71,60.91 0,180.83 -42.92,325.04 -128.75,432.62 -95,120.17 -232.34,180.26 -412.02,180.26l-508.15 0 0 -1225.76 508.15 0c179.69,0 317.03,60.09 412.02,180.26 26.94,33.77 49.66,71.15 68.14,112.14l-9.87 11.94c-47.39,57.34 -101.61,110.49 -156.04,161.48 -12.28,-67.42 -34.06,-121.98 -65.32,-163.67 -65.24,-84.69 -175.68,-127.04 -331.33,-127.04l-211.16 0z"/>
   <path class="fil1" d="M1704.25 848.44l0 25.8 -8.09 2.31c-20.51,5.88 -40.25,14.33 -58.44,25.5 -24.07,14.78 -46.85,30.22 -68.48,48.43 -20.9,17.6 -44.74,37.88 -60.91,59.96l-18.67 22.81 0 -359.92 508.15 0c179.69,0 317.03,60.09 412.02,180.26 85.83,107.58 128.75,251.79 128.75,432.62 0,180.83 -42.92,325.04 -128.75,432.62 -92.32,116.78 -224.63,176.81 -396.93,180.11l-2.23 -7.87c-8.09,-28.53 -17.95,-56.55 -29.22,-83.98 -11.73,-28.56 -25.12,-56.43 -39.9,-83.53 141.93,-4.55 243.67,-46.74 305.19,-126.62 51.5,-68.67 77.25,-172.24 77.25,-310.73 0,-138.48 -25.74,-242.06 -77.25,-310.73 -65.24,-84.69 -175.68,-127.04 -331.34,-127.04l-211.15 0zm212.06 1050.65l-426.66 0 0 -700.23 24.92 -39.89c13.48,-21.57 27.56,-43.13 43.96,-62.61 3.44,-4.08 6.69,-8.3 10.08,-12.42 37.62,-45.76 82.99,-84.16 135.64,-111.19l0 751.23 130.34 0 9.04 15.09c19.82,33.09 37.41,67.56 52.07,103.24 7.65,18.62 14.58,37.56 20.62,56.77z"/>
  </g>
 </g>
</svg>
