<?xml version="1.0" encoding="utf-8"?>
<!-- Generator: Adobe Illustrator 19.0.0, SVG Export Plug-In . SVG Version: 6.00 Build 0)  -->
<svg version="1.1" id="Layer_1" xmlns="http://www.w3.org/2000/svg" xmlns:xlink="http://www.w3.org/1999/xlink" x="0px" y="0px"
	 viewBox="0 0 1198 275" style="enable-background:new 0 0 1198 275;" xml:space="preserve">
<style type="text/css">
	.st0{fill:#00A15F;}
	.st1{fill:#FFFFFF;}
	.st2{fill:#211F1F;}
</style>
<g>
	<g>
		<path class="st0" d="M33.5,0.5h206c13.1,1.5,25.1,10.1,30.4,22.2c2.7,5.9,3.4,12.4,3.4,18.8c0,62,0,124,0,186
			c0,8.7,0.5,17.8-3.5,25.8c-5.5,12.4-18,20.7-31.3,22.3h-204c-10.1-1.3-19.9-6.2-26.3-14.2C3.7,255.8,1,249,0,242V34
			c1-6.5,3.2-12.9,7.3-18.2C13.4,7.3,23.2,1.8,33.5,0.5z M38.4,22.1c-8.9,0.5-16.7,8.5-16.9,17.5c0,65.6,0,131.2,0,196.8
			c0.2,9.2,8.3,17.4,17.5,17.6c65,0,130,0,195,0c9.2-0.1,17.3-8.3,17.5-17.5c0-65.7,0-131.3,0-197c-0.2-9.5-8.9-17.8-18.4-17.5
			C168.2,22,103.3,21.9,38.4,22.1z"/>
	</g>
	<path class="st0" d="M76.6,63.5c8.6-7,17.4-13.7,26.2-20.5c8.7,6.8,17.4,13.6,26.1,20.4c-8.4,6.6-16.8,13.2-25.3,19.7
		c-1.1,1.3-2.2-0.5-3.1-1C92.6,75.8,84.5,69.8,76.6,63.5z"/>
	<path class="st0" d="M82,91.3c13.7,0,27.3,0,41,0c0,34.8,0,69.5,0,104.3c-19.3,10.9-38.7,21.7-58,32.6c0-6.9,0-13.8,0-20.7
		c5.7-3.3,11.4-6.5,17-9.8C82,162.2,82,126.7,82,91.3z"/>
	<path class="st0" d="M134.8,91.3c13.7,0,27.4-0.1,41,0.1c0.3,6.9-0.6,14.1,0.4,20.9c0.3,0,0.8-0.2,1.1-0.2
		c8.3-6.5,16.6-12.9,24.8-19.4c8.8,6.7,17.6,13.5,26.2,20.5c-8.8,6.7-17.4,13.7-26.2,20.3c-8.3-6.5-16.7-12.9-25-19.5
		c-1.5-0.7-1.7,1.8-1.4,2.5c0.1,26.3,0,52.5,0,78.8c-13.6,0-27.3,0-40.9,0C134.7,160.6,134.8,125.9,134.8,91.3z"/>
	<g>
		<path class="st0" d="M184.3,182.9c4.2-1.9,9.5,1.7,9,6.4c0,4.8-6.1,7.6-10,5C178.9,191.8,179.5,184.5,184.3,182.9z M182.4,191.2
			c1.3,2.9,4.7,2.8,7.3,2.4c-1.3-1.5-2.6-3.1-4.1-4.5c0,0.8-0.1,2.5-0.2,3.3l-1.3,0.1c0-2.5,0-5,0-7.5c1.9,0,3.8,0.2,5.6,0.8
			c0,1.5-0.3,3-1.7,3.9c0.8,1,1.7,2,2.5,2.9c1.4-2.7,1.6-6.8-1.6-8.3C185.1,181.9,180,187.2,182.4,191.2z M185.4,186.7
			c-1.1,1.6,1.8,2.4,2.7,1.3C189.4,186.3,186.2,185.3,185.4,186.7z"/>
	</g>
</g>
<g>
	<g>
		<path class="st1" d="M38.4,22.1c64.9-0.1,129.8,0,194.6-0.1c9.5-0.3,18.3,8,18.4,17.5c0,65.7,0,131.3,0,197
			c-0.2,9.2-8.3,17.4-17.5,17.5c-65,0-130,0-195,0c-9.2-0.2-17.3-8.4-17.5-17.6c0-65.6,0-131.2,0-196.8
			C21.7,30.6,29.5,22.6,38.4,22.1z M76.6,63.5c7.9,6.3,16,12.4,23.9,18.7c0.9,0.5,2.1,2.2,3.1,1c8.4-6.6,16.9-13.1,25.3-19.7
			c-8.7-6.8-17.4-13.6-26.1-20.4C94,49.7,85.2,56.5,76.6,63.5z M82,91.3c0,35.5,0,70.9,0,106.4c-5.6,3.3-11.3,6.5-17,9.8
			c0,6.9,0,13.8,0,20.7c19.3-10.9,38.7-21.7,58-32.6c0-34.8,0-69.5,0-104.3C109.3,91.3,95.7,91.3,82,91.3z M134.8,91.3
			c0,34.7-0.1,69.4,0.1,104c13.6-0.1,27.3,0,40.9,0c0-26.3,0-52.6,0-78.8c-0.2-0.8,0-3.3,1.4-2.5c8.3,6.5,16.6,13,25,19.5
			c8.8-6.6,17.4-13.6,26.2-20.3c-8.6-6.9-17.4-13.8-26.2-20.5c-8.3,6.5-16.6,12.9-24.8,19.4c-0.3,0.1-0.8,0.2-1.1,0.2
			c-1-6.8-0.2-14-0.4-20.9C162.1,91.2,148.4,91.3,134.8,91.3z M184.3,182.9c-4.7,1.6-5.3,9-0.9,11.4c3.8,2.6,9.9-0.2,10-5
			C193.8,184.6,188.5,181,184.3,182.9z"/>
	</g>
	<path class="st1" d="M182.4,191.2c-2.5-4,2.6-9.3,6.7-6.9c3.2,1.6,3,5.6,1.6,8.3c-0.9-1-1.7-1.9-2.5-2.9c1.4-0.9,1.6-2.4,1.7-3.9
		c-1.8-0.7-3.7-0.8-5.6-0.8c0,2.5,0,5,0,7.5l1.3-0.1c0-0.8,0.1-2.5,0.2-3.3c1.5,1.4,2.8,2.9,4.1,4.5
		C187.1,194,183.7,194.1,182.4,191.2z"/>
	<path class="st1" d="M185.4,186.7c0.8-1.4,4-0.4,2.7,1.3C187.2,189.1,184.3,188.4,185.4,186.7z"/>
</g>
<g>
	<path class="st2" d="M489.5,83c8.6,0,17.3,0,26,0c0,16.9,0,33.7,0,50.6c6.2-8,17-10.2,26.6-10c5.4,0.3,11.5,1.3,15.1,5.8
		c3.7,4.5,4,10.6,4.3,16.2c0.1,12.3,0,24.5,0.1,36.8c0.1,2.4,0.5,5.5,3.1,6.6c3.2,1.4,6.8,1.1,10.2,1.4c0,1.6,0,3.3,0,4.9
		c-13-0.3-26-0.3-39,0c0-1.6,0-3.3,0-4.9c3.5-0.4,7.2-0.1,10.5-1.4c2.6-1.4,2.5-4.8,2.7-7.3c0.1-11,0-22,0-33
		c-0.2-4.9-0.5-10.3-3.8-14.2c-3.3-3.6-8.6-4.1-13.2-3.8c-4.6,0.1-9.5,1.8-12.5,5.5c-3.1,4.1-4,9.4-4,14.5c0,10.7,0,21.3,0,32
		c0,2.4,0.5,5.4,3,6.5c3.3,1.2,6.8,1.1,10.2,1.3c0,1.6,0,3.3,0,4.9c-13.1-0.3-26.2-0.3-39.3,0c0-1.7,0.1-3.3,0.1-5
		c3.4-0.3,6.8-0.2,10-1.2c2.6-1,3.1-4.1,3.1-6.6c0-28.7,0-57.3,0-86c0-2.5-0.2-5.7-2.8-7c-3.3-1.6-7-1.3-10.5-1.5
		C489.5,86.4,489.5,84.7,489.5,83z"/>
	<g>
		<path class="st2" d="M872.2,83.3c8.6-0.1,17.2,0,25.8,0c0,16.2,0,32.3,0,48.5c6.8-6.7,16.8-9.1,26.1-8c7.6,0.5,15.6,3.3,20,9.8
			c5.8,8.8,5.7,19.8,5.4,29.9c-0.6,10.1-3.2,21.3-11.6,27.9c-7.8,6.1-18.4,5.6-27.8,4.5c-4.3-0.4-8.2-2.3-12.1-4.1
			c-4.3,1.3-8.3,3.3-12.5,4.8c0.1-32,0-64.1,0.1-96.1c-0.2-3.4,0.8-7.8-2.1-10.4c-3.3-2-7.5-1.6-11.2-1.9
			C872.2,86.6,872.2,84.9,872.2,83.3z M910.4,130.1c-4,1-7.6,3.7-9.6,7.4c-3,5.5-3.1,11.9-3.1,18c0.1,7.7-0.5,15.5,1.1,23.1
			c1,4.8,4,9.6,8.8,11.2c6.8,2.4,15.2,2.1,20.8-2.9c5.1-5,6.7-12.4,7.3-19.3c0.4-6.8,0.4-13.8-0.5-20.6c-0.8-5.2-2.4-10.7-6.6-14.2
			C923.6,128.7,916.4,128.5,910.4,130.1z"/>
	</g>
	<g>
		<path class="st2" d="M735,91.3c11.3,0,22.8-1.1,34,1.1c6.1,1.1,11.8,5.3,13.5,11.5c2.3,8.5,2.3,18.2-2.3,26
			c-4.7,7.6-14,10.2-22.3,11.3c6.9,11.7,14.9,22.8,22.4,34c4.6,6.3,9.3,14.6,18.2,14.9c0,1.8,0,3.5,0.1,5.3
			c-7.4-0.4-14.7-0.3-22.1-0.1c-8.4-13.8-17.2-27.4-26.5-40.6c-2.6-3.4-5-7.1-8.3-9.9c-3.5-2.1-7.8-1.4-11.7-1.5
			c0,12.8,0,25.5,0,38.3c0.2,2.3,0,5.4,2.3,6.7c3.7,1.9,8.1,1.4,12.2,1.8c0,1.7,0,3.4,0,5.2c-14.2-0.3-28.4-0.3-42.5,0
			c0-1.8,0-3.5,0.1-5.3c3.7-0.2,7.5,0,11-1.2c2.2-0.8,3.3-3.1,3.1-5.3c0-26.6,0-53.3,0-79.9c0.1-2.1-0.4-4.7-2.6-5.7
			c-3.6-1.6-7.8-1.3-11.7-1.3c0-1.8,0-3.7,0-5.5C713,91.6,724,91.1,735,91.3z M730,97.2c0,13.6,0,27.1,0,40.7
			c9.6-0.1,19.7,1.2,28.8-2.6c5.9-2.4,9.3-8.7,9.7-14.8c0.3-5.9,0.4-12.3-2.9-17.4c-3-4.5-8.7-5.8-13.8-6.2
			C744.5,96.5,737.2,96.9,730,97.2z"/>
	</g>
	<path class="st2" d="M370.5,90.9c14.1,0.5,28.3,0.5,42.5,0c0,1.9,0,3.7,0,5.5c-4,0.2-8.6-0.7-12.1,1.8c-2.5,2.3-2.1,6.1-2.4,9.2
		c0,24,0,48,0,72c0,11.9-2.5,24.7-10.6,33.9c-6.2,7.1-15.5,10.6-24.6,11.9c0-1.1,0-2.3,0-3.4c6.1-1.8,11.8-5.4,15.4-10.8
		c4.4-6.6,5.5-14.8,6-22.6c0.6-25.6,0.2-51.3,0.3-77c-0.2-3.9,0.3-8.1-1.2-11.8c-2.8-4.4-8.9-2.9-13.3-3.3
		C370.5,94.7,370.5,92.8,370.5,90.9z"/>
	<path class="st2" d="M1104.1,104.8c4.2-1.7,8.3-3.6,12.5-5.2c0,8.5,0,17,0,25.5c5.7,0,11.3,0,17,0c0,2,0,4,0,6
		c-5.7,0.1-11.3,0-17,0c0,15.2-0.1,30.3,0,45.5c0.2,4.3,0.6,9.4,4.2,12.3c4.7,3.1,10.7,1.1,15.3-1.1c0.6,1.5,1.3,3,2,4.5
		c-7.5,3.1-15.8,5.6-23.9,3.6c-4.3-0.9-7.6-4.4-8.8-8.5c-1.8-6.1-1.3-12.4-1.3-18.7c-0.1-12.5,0.1-25.1-0.1-37.6
		c-3.8,0.1-7.7,0.1-11.5,0.1c-0.1-2.1-0.1-4.1-0.1-6.1c3.9,0.1,7.7,0.1,11.6,0.1C1104.1,118.3,1103.9,111.5,1104.1,104.8z"/>
	<g>
		<path class="st2" d="M441.4,124.1c10.5-1.2,22.3-0.7,31.1,5.8c8.3,6.5,10.7,17.6,11,27.6c0.1,10-0.6,21.1-7.3,29.2
			c-6.1,7.4-16.1,9.4-25.2,9.7c-9.4,0.1-19.8-1.3-26.9-8c-6.9-6.7-8.5-16.8-8.8-26c-0.2-9.4,0.7-19.5,6.2-27.5
			C425.9,128.4,433.8,125,441.4,124.1z M441.4,130.1c-4.9,1.5-8.7,5.6-10.3,10.5c-2.5,7.7-2.2,15.9-2.1,23.9
			c0.3,6.5,0.6,13.3,4.1,19c3.1,5.1,9.1,7.5,14.9,7.5c5.5,0.3,11.6-0.7,15.6-4.9c4.9-5,5.6-12.3,6.1-19c0.1-8,0.5-16.1-1.3-23.9
			c-1.1-5.1-4.1-10.1-9-12.3C453.8,128.4,447.3,128.4,441.4,130.1z"/>
	</g>
	<path class="st2" d="M621.9,124.4c7.6-1.4,16.1-1.7,23.2,1.9c6.3,3.6,7.5,11.5,7.8,18.1c0.2,12.4,0,24.7,0.1,37.1
		c0.1,2.5,0.1,5.9,2.7,7.2c3.2,1.6,6.8,1.3,10.3,1.6c0,1.6,0,3.3,0,4.9c-12.8-0.4-25.7-0.3-38.5,0c0.1-1.6-0.2-3.3,0.3-4.9
		c3.4-0.7,7.1-0.1,10.2-1.7c2.4-1.5,2.2-4.6,2.5-7.1c0.1-10.7,0-21.3,0-32c-0.2-5.1-0.3-10.7-3.6-14.9c-2.9-3.4-7.6-4.3-11.9-4.2
		c-5-0.1-10.6,1.2-13.8,5.3c-3.2,4.2-3.9,9.6-4,14.8c0,10.7,0,21.3,0,32c0,2.5,0.5,5.5,3.1,6.6c3.1,1.2,6.5,1.1,9.7,1.3
		c0,1.6,0,3.3,0,5c-12.9-0.4-25.8-0.3-38.7,0c0-1.6-0.1-3.3-0.1-4.9c4.2-0.9,10.4,0.8,12.7-3.8c1.5-7.2,0.6-14.7,0.9-22
		c-0.3-10,0.6-20-0.6-30c-1.5-5.6-8.6-4.1-12.9-4.8c0-1.5,0-3.1,0-4.6c8.4-0.2,16.9,0,25.3-0.1c0,2.5,0,5.1,0,7.7
		C611.6,129.8,616,125.5,621.9,124.4z"/>
	<g>
		<path class="st2" d="M825.5,124.2c10.6-1.5,22.4-1.1,31.5,5.2c8.5,6.1,11.2,17.1,11.6,27c0.3,10.2-0.3,21.5-6.9,29.9
			c-6.1,7.8-16.5,9.9-25.8,10.2c-9.4,0.1-19.8-1.3-26.8-8.2c-6.8-6.7-8.4-16.7-8.7-25.8c-0.2-9.4,0.7-19.5,6.1-27.5
			C810.9,128.7,818.2,125.3,825.5,124.2z M826.4,130.1c-4.1,1.4-7.6,4.5-9.3,8.5c-2.8,6.5-2.9,13.8-2.9,20.8c0,7.3,0,15,2.9,21.8
			c2,4.9,6.7,8.4,11.8,9.3c6.3,1,13.5,0.8,18.7-3.4c4.4-3.6,6.1-9.4,6.8-14.8c0.8-7.3,0.7-14.6,0.3-21.9c-0.5-6.5-2-13.9-7.6-18
			C841.2,128.2,833.2,128.2,826.4,130.1z"/>
	</g>
	<g>
		<path class="st2" d="M971.7,132.2c6.3-6.4,15.6-8.7,24.3-8.7c8.1,0,16.9,2.2,22.3,8.7c6.3,7.8,7.3,18.4,6.7,28.1
			c-15.9-0.1-31.8-0.1-47.7,0c-0.1,7-0.1,14.2,2.4,20.7c2,5.1,6.8,9.1,12.3,9.7c5.8,0.7,12.7,0.5,16.9-4.2c3.8-4,3.7-9.8,5.5-14.7
			c2.3-1.2,5.2-0.9,7.7-0.5c1.8,0,1.8,2,1.6,3.3c-1,7.8-5.8,15.3-13,18.6c-7.7,3.5-16.5,4-24.8,2.6c-6.7-1.1-13-4.8-16.6-10.7
			c-5.4-8.8-5.9-19.5-5.9-29.5C963.3,147.2,965.6,138.3,971.7,132.2z M980.9,135.5c-3.5,5.8-3.6,12.8-3.9,19.4
			c11.4,0.2,22.9,0.1,34.3,0.1c0.1-6.3,0-12.9-3-18.6C1003.2,126.3,986.6,125.9,980.9,135.5z"/>
	</g>
	<path class="st2" d="M1068.8,124.3c5.3-1.6,12-0.8,15.8,3.6c3.2,3.9,3.1,9.5,1.9,14.2c-1,2.5-4.3,2.3-6.5,2.2c-1.5,0.1-3-0.7-3.7-2
		c-0.9-2.9-0.2-6.3-1.9-9c-2.7-3.7-8.6-2.8-11.1,0.5c-3.3,4.2-3.7,9.7-3.9,14.8c-0.1,9.3,0,18.6,0,28c0.3,4.1-0.9,9.4,2.7,12.3
		c3.8,1.7,8,1.4,12.1,1.6c0,1.7,0,3.3-0.1,5c-13.5-0.4-27-0.2-40.5-0.2c0-1.6,0.1-3.2,0.1-4.8c3.5-0.4,7.3,0,10.5-1.7
		c2.5-1.3,2.6-4.6,2.7-7.1c0-14.7,0-29.4,0-44.2c-0.1-2.4-0.6-5.6-3.3-6.4c-3.2-1.1-6.6-1-9.9-1.3c0-1.6,0-3.2,0-4.7
		c8.3,0,16.7,0,25,0c0,2.2,0,4.5,0,6.7C1061.5,128.7,1064.6,125.4,1068.8,124.3z"/>
	<path class="st2" d="M1163.8,125.1c10.1-2.7,21.2-1.9,30.9,2c0.1,6.1,0,12.3,0.1,18.4c-2.7,0-5.4,0-8.1,0
		c-0.5-4.2-0.3-8.7-2.1-12.6c-2.1-3.7-6.8-4-10.6-4c-4.1,0.1-8.9,0.5-11.8,3.8c-3.8,5.2-3.5,13.6,2.5,17.1
		c8.2,4.6,18.4,4.3,26.3,9.8c4,2.4,6.3,6.8,7,11.3v7.7c-1.3,7.9-7.7,14-15.3,15.8c-11.7,2.9-24.8,3.6-35.9-2c0-6.8,0-13.6,0-20.4
		c2.7,0,5.4,0,8.2,0c0.4,4.8,0,9.9,2.3,14.3c1.7,3.2,5.4,4.5,8.8,4.9c5.9,0.7,12.6-0.3,17.2-4.5c4.7-4.3,5.2-13.1-0.4-16.9
		c-9-6.2-21.4-4.9-29.8-12.2c-5.5-5.1-5.3-13.7-3.1-20.3C1151.9,131,1157.6,126.7,1163.8,125.1z"/>
</g>
</svg>
